<svg xmlns="http://www.w3.org/2000/svg" width="256" height="256" viewBox="0 0 256 256">
  <!-- Shadow for chat bubble -->
  <path fill="rgba(0,0,0,0.12)"
        d="M60 48 h136 a22 22 0 0 1 22 22 v100 a22 22 0 0 1 -22 22 h-72 l-20 20 -20 -20 h-24 a22 22 0 0 1 -22 -22 v-100 a22 22 0 0 1 22 -22 z"
        transform="translate(0,6)"/>

  <!-- Chat bubble -->
  <path fill="#ffffff"
        d="M56 44 h144 a24 24 0 0 1 24 24 v104 a24 24 0 0 1 -24 24 h-72 l-24 24 -24 -24 h-24 a24 24 0 0 1 -24 -24 v-104 a24 24 0 0 1 24 -24 z"/>

  <!-- AI text -->
  <text x="75" y="150" font-size="72" fill="#343741" font-family="sans-serif" font-weight="700" letter-spacing="4">AI</text>

  <!-- Circle shadow -->
  <circle fill="rgba(0,0,0,0.12)" cx="192" cy="56" r="44"/>

  <!-- Circle -->
  <circle fill="#343741" cx="188" cy="52" r="44"/>

  <!-- A text -->
  <text x="169" y="43" font-size="26" fill="#ffffff" font-family="sans-serif" font-weight="700">A</text>

  <!-- 文 text -->
  <text x="181" y="71" font-size="26" fill="#ffffff" font-family="sans-serif" font-weight="700">文</text>

  <!-- Arrow -->
  <path fill="#ffffff" d="M175 50 c 6 4, 10 7, 14 11 l -2 2 c -3 -3 -6 -5 -10 -8 l 0 5 l -3 -7 z"/>
</svg>
